<svg xmlns="http://www.w3.org/2000/svg" xmlns:xlink="http://www.w3.org/1999/xlink" viewBox="0 0 780.96 1199.19"><defs><style>.cls-1{fill:none;}.cls-2{fill:#e8bb00;opacity:0.9;}.cls-3{clip-path:url(#clip-path);}.cls-4{fill:#fff;opacity:0.15;}</style><clipPath id="clip-path"><polygon class="cls-1" points="15.96 691 391.33 902.02 768.96 686 836.96 550 719.96 421 239.96 481 24.96 500 15.96 691"/></clipPath></defs><title>Recurso 2prueba</title><g id="Capa_2" data-name="Capa 2"><g id="Capa_1-2" data-name="Capa 1"><polygon class="cls-2" points="391.33 902.02 737.8 702 737.8 0 44.89 0 44.89 702 391.33 902.02"/><g class="cls-3"><path class="cls-4" d="M731.4,672.68l.82.32-.88-.37a230.58,230.58,0,0,0-45.91-24.77,243,243,0,0,0-46.24-13.31q6.53-6.11,13-12.24l30.63-29.08c10.1-9.82,20.3-19.52,30.3-29.43-10.71,9.15-21.22,18.52-31.83,27.77l-31.5,28.13q-7.78,7-15.52,14a230.67,230.67,0,0,0-67-1.11q-9.2,1.16-18.31,3a219.5,219.5,0,0,0-19.15-11.91,245.41,245.41,0,0,0-62.58-23,251.16,251.16,0,0,0-66.7-3.6q-4.59.48-9.15,1.14-.36-32.26-.9-64.52-.55,32.26-.9,64.52-4.56-.65-9.15-1.14a251.16,251.16,0,0,0-66.7,3.6,245.41,245.41,0,0,0-62.58,23A219.49,219.49,0,0,0,232,635.61q-9.1-1.84-18.31-3a230.67,230.67,0,0,0-67,1.11q-7.74-7-15.52-14l-31.5-28.13C89,582.33,78.51,573,67.8,563.81c10,9.92,20.21,19.62,30.3,29.43l30.63,29.08q6.5,6.14,13,12.24a243,243,0,0,0-46.24,13.31,230.58,230.58,0,0,0-45.91,24.77l-.88.37.82-.32A246.52,246.52,0,0,0,0,718.43a245.28,245.28,0,0,1,55.25-47.92,226.11,226.11,0,0,1,114.21-10.17q10.53,9.78,21.05,19.57,17,15.45,34,31a237.66,237.66,0,0,0-20.31,46.59,252.26,252.26,0,0,0-10,66.34c0,.65,0,1.31,0,2-.17,2.72-.27,5.47-.27,8.25a129.28,129.28,0,0,0,3.84,31q-54.78.48-109.56,1.43,55.15,1,110.3,1.44.42,1.55.87,3.09,2,9.66,4.74,19.16a245.61,245.61,0,0,0,28.77,60.56l10,13.53,2.5,3.38c.87,1.09,1.86,2.09,2.79,3.14l5.65,6.23c7.18,8.65,15.94,15.72,24.18,23.3a261,261,0,0,0,31.09,21.19,230,230,0,0,1-15.77,18.07,251.59,251.59,0,0,1-41.68-16.62C232,1012.54,214.25,999.07,198,983.86c15.94,15.47,33.55,29.28,53.1,40A253.46,253.46,0,0,0,291.86,1041c-2.58,2.57-5.23,5.07-8,7.46-51.17,47.58-125.52,68-194.52,55a229.92,229.92,0,0,0,104.52-2.57c34.2-8.73,66-26.3,92.36-49.76q5-4.23,9.61-8.85,8.84,2.65,17.88,4.61,11.87,2.26,23.91,3.35l-3.2,2.94-11.85,9-5.94,4.49c-2,1.43-4.2,2.63-6.3,4l-12.68,7.81a244.81,244.81,0,0,1-114.23,30.46,245.94,245.94,0,0,0,115.31-28.5l12.9-7.73c2.13-1.32,4.34-2.52,6.4-3.94l6-4.47,12.08-9,5.27-4.74q2,.16,4.09.28l6,5.56q18,16.35,35.95,32.77-11.48,10.69-22.89,21.44c-20.46,19.34-40.87,38.74-60.94,58.51C325,1150.74,346,1132,367,1113.2q11.16-10,22.22-20.09l.18,22.9,1.13,83.18,1.13-83.18.18-22.9q11.08,10.08,22.22,20.09c21,18.8,42,37.54,63.33,55.91-20.07-19.77-40.48-39.16-60.94-58.51q-11.39-10.78-22.89-21.44,18-16.38,35.95-32.77l6-5.56q2-.12,4.09-.28l5.27,4.74,12.08,9,6,4.47c2.06,1.42,4.27,2.62,6.4,3.94l12.9,7.73a245.94,245.94,0,0,0,115.31,28.5,244.81,244.81,0,0,1-114.23-30.46l-12.68-7.81c-2.09-1.33-4.27-2.53-6.3-4l-5.94-4.49-11.85-9-3.2-2.94q12-1.1,23.91-3.35,9-1.94,17.88-4.61,4.63,4.61,9.61,8.85c26.4,23.45,58.15,41,92.36,49.76a229.92,229.92,0,0,0,104.52,2.57c-69,13.07-143.35-7.37-194.52-55-2.75-2.39-5.41-4.89-8-7.46a253.46,253.46,0,0,0,40.72-17.13c19.55-10.77,37.16-24.58,53.1-40-16.21,15.2-34,28.68-53.63,39.06a251.6,251.6,0,0,1-41.68,16.62,230,230,0,0,1-15.77-18.07,261,261,0,0,0,31.09-21.19c8.24-7.58,17-14.65,24.18-23.3l5.65-6.23c.93-1.05,1.92-2,2.79-3.14l2.5-3.38,10-13.53a245.62,245.62,0,0,0,28.77-60.56q2.75-9.49,4.74-19.16.45-1.55.87-3.1l34.74-.3,75.55-1.13-75.55-1.13-34-.29A129.28,129.28,0,0,0,587,834c0-2.78-.1-5.53-.27-8.25,0-.65,0-1.31,0-2a252.26,252.26,0,0,0-10-66.34,237.67,237.67,0,0,0-20.31-46.59q17-15.48,34-31,10.51-9.8,21.05-19.57a226.11,226.11,0,0,1,114.21,10.17A245.28,245.28,0,0,1,781,718.43,246.52,246.52,0,0,0,731.4,672.68Zm-479.72-48a243.73,243.73,0,0,1,62.48-21.76,250,250,0,0,1,66-2.92l.39,0a252.49,252.49,0,0,0-45,13c-20.74,8.54-40,20.38-57.55,34.26L276.18,649A242.74,242.74,0,0,0,233,635.82C239.05,631.82,245.26,628.09,251.68,624.7Zm61.9,371.76c-48.74-44.13-85.72-83.17-98.24-127.79-.06-.21-.11-.42-.17-.63l24.21.19,61.67.22c19.67,40.94,30.66,82.34,39,101.41-.84,1.86-1.76,3.68-2.63,5.52l-5.66,11.74a41.64,41.64,0,0,1-3.15,5.7l-3.4,5.56c-1.15,1.83-2.26,3.7-3.38,5.56ZM325.44,1026l-1-.48-7.91-7.21.13-.17Q321.22,1022.17,325.44,1026Zm-11.71-10.49-.1.13-7.26-6.6Q310.15,1012.34,313.74,1015.52ZM272.19,753.87q21.93,19.55,44.16,38.77-21.4-21.08-43.22-41.7c3.25-8.71,8.69-12.08,8.69-12.08s30.21,16.33,63.95,71.41a217.7,217.7,0,0,1,10.93,50.81q.14,1.6.27,3.21l-41.8.15A319.58,319.58,0,0,0,292.3,823.5C269.09,789.11,269.27,764.94,272.19,753.87Zm-5.44-23.36s-16-14.4-32-28.64c.55-.88,1.1-1.75,1.66-2.62l8.6-11.73q2.55,1.5,5.07,3.06a240.71,240.71,0,0,1,30.86,22.69Zm50.32,138,40.12.14-.1,2,.51,9.81A230.15,230.15,0,0,1,347.07,950,554.22,554.22,0,0,0,317.07,868.5Zm43.35,39.9c.39,2.43.78,4.86,1.11,7.3a48.54,48.54,0,0,0,1.56,7.37l1.89,7.31,1.89,7.31a51.92,51.92,0,0,0,2.18,7.22c3.61,9.39,6.5,19.08,11.31,27.95,2.26,4.49,4.29,9.11,6.74,13.48l1.22,2-.83,1.39c-8-1.24-29.42-6.94-38.35-32.6A234.64,234.64,0,0,0,360.43,908.4Zm23.42,62.81c-4.66-8.76-7.5-18.29-11-27.54a50.36,50.36,0,0,1-2.12-7.1l-1.83-7.19-1.84-7.19a47.07,47.07,0,0,1-1.51-7.25c-1.29-9.71-3.43-19.33-3.49-29.16q.2-8.56-.23-17.12l26.36.09.36,112.31C386.93,977.81,385.45,974.47,383.85,971.21Zm4.34-107-26.53.09.43-8.39c.06-9.92,2.22-19.63,3.58-29.41l.58-3.66.93-3.59L369,812c1.36-4.75,2.21-9.65,4-14.27,3.56-9.21,6.37-18.74,11.08-27.46.54-1.09,1.06-2.18,1.58-3.28l2.8,3.24Zm-.65-110.84c-6.89-8.67-26.67-33-43.64-48.53-20.93-19.11-39.14-34.92-39.14-34.92l1.33-1.15q8.34,5.13,16.19,11c3.94,3,7.94,5.89,11.83,8.94l11,10,5.47,5,5,5.5,10,11,8.88,11.88,4.43,5.94c1.39,2,2.59,4.21,3.89,6.3l5.17,8.53Zm-5.14,9.94c-.81,1.7-1.62,3.4-2.45,5.08-4.77,8.91-7.61,18.63-11.2,28-1.78,4.71-2.64,9.71-4,14.55l-1.87,7.32-.93,3.66-.58,3.73c-.77,5.68-1.8,11.33-2.55,17a233.22,233.22,0,0,0-31.73-81.6c-18.56-30.18-44.86-55.38-75.16-73.51q-2.41-1.44-4.86-2.82l1.55-2.12c.85-1.08,1.82-2.06,2.73-3.09l5.53-6.13a119.88,119.88,0,0,1,11-11.44,168.67,168.67,0,0,1,18.85,11C322.29,696.9,364.85,743.34,382.4,763.27ZM151.88,655.82a226.12,226.12,0,0,0-96.12,14.37A227.65,227.65,0,0,1,96.35,650a241.67,241.67,0,0,1,48-13q10.91,10.2,21.86,20.34Q159.06,656.33,151.88,655.82Zm2.35-15.22-4.85-4.42a226.94,226.94,0,0,1,63.88-.07l2.84.42C182.44,631.69,162.19,637.45,154.23,640.6ZM190,661.89c-8.21-7.49-14.21-13-15.34-13.51a133.43,133.43,0,0,1,42.55-1.66c-6.64,5.38-13,11.08-19.15,17,6.34-5.95,12.93-11.62,19.77-17A151.3,151.3,0,0,1,264,660.05a117.85,117.85,0,0,0-10.11,10.57l-5.65,6.23c-.93,1.05-1.92,2-2.79,3.14l-2,2.7A228.33,228.33,0,0,0,190,661.89Zm27.65,24.87c-7.93-6.93-16.1-14.34-23.17-20.79a219,219,0,0,1,46.94,19.46l-8.46,11.47c-.46.71-.91,1.42-1.36,2.13C226.69,694.71,221.88,690.47,217.63,686.76ZM201.72,789.13a248.23,248.23,0,0,1,6.66-30.38,232.89,232.89,0,0,1,19.32-44.93q6.31,5.75,12.64,11.48C238.71,726.92,214.48,751.78,201.72,789.13Zm47.77-54s6.52,5,10,8.06c-11.51,23.41,2.91,62.54,17.65,83.66a292.29,292.29,0,0,1,22,37.65l-59.74.21-25,.19C197.2,795.13,249.49,735.12,249.49,735.12ZM214.54,906.27c15.16,27,37.71,52.9,64.22,78l-18.13-16.19c-8.78-7.66-17.5-15.39-26.31-23A249.14,249.14,0,0,1,214.54,906.27Zm66,91c-8.07-7.49-16.66-14.44-23.68-23l-5.53-6.13c-.91-1-1.88-2-2.73-3.09l-2.44-3.33-9.76-13.32-1-1.59c7.86,7.68,15.8,15.27,23.68,22.93l30.63,29.08q9.77,9.23,19.61,18.39A272.54,272.54,0,0,1,280.55,997.22Zm59.59,50.7a252.23,252.23,0,0,1-26-3.24q-8.46-1.67-16.77-4a228.3,228.3,0,0,0,15.18-17.27q4,2.21,8.06,4.27l20.65,19.18Zm4.43-4.07-11.24-10.26.74.31q5.57,5.15,10.56,9.89Zm2.14,2h0l.31.3Zm7.73-11.71q-12.62-11.83-29.65-27.42c1.27-2.07,2.52-4.15,3.82-6.2l3.48-5.65a43.06,43.06,0,0,0,3.23-5.79l5.82-11.94c.39-.81.79-1.62,1.18-2.43a30.12,30.12,0,0,0,1.56,2.61c8.66,12.76,24,21.13,36.09,25-.3.47-.6.93-.92,1.38l-4.42,6-8.87,11.92-9.94,11.05Zm2.21,2.07,1.4-1.52,10.19-11.1,9.12-12,4.54-6c.54-.76,1-1.54,1.54-2.33a50.83,50.83,0,0,0,5.16,1.06l.09,28.54.1,13.11a243.3,243.3,0,0,1-28.8-6.62Zm8.39,7.92q7.7,2,15.52,3.47l-.43.05q-5.31.47-10.63.71Zm7.27,6.92q4.05-.19,8.1-.51,4.22-.44,8.41-1l.14,17.6C386.31,1064.49,380.77,1059.07,372.33,1051ZM388.72,700.1l-.15,45.27-2.11-3.46c-1.34-2.13-2.57-4.34-4-6.41l-4.53-6-9.09-12.06-10.18-11.16-5.09-5.58L348,695.57,336.8,685.44c-4-3.09-8.05-6-12.07-9.07q-7.46-5.57-15.37-10.46c7.68-6.51,23.49-19.55,36.07-27.51,13.31-8.41,35.7-19.13,44-22.71Q389,657.9,388.72,700.1Zm.81-97c-7.51,1.93-24.53,8.44-49.86,25.29-24.42,16.29-37.38,26.42-42.4,30.52q-8.35-4.47-17.06-8.24l.34-.31c17.27-13.64,36-25.43,56.37-34.06a247.65,247.65,0,0,1,52.62-14.76Q389.53,602.36,389.53,603.14ZM400.82,600a250,250,0,0,1,66,2.92,243.73,243.73,0,0,1,62.48,21.76c6.41,3.39,12.62,7.12,18.65,11.12A242.74,242.74,0,0,0,504.78,649l-1.84-1.68c-17.59-13.88-36.8-25.72-57.55-34.26a252.49,252.49,0,0,0-45-13Zm113,351.42c-13.66,14.69-29.31,29.55-46.41,45l-8.22,7.47c-1.12-1.85-2.23-3.72-3.38-5.56l-3.4-5.56a41.64,41.64,0,0,1-3.15-5.7l-5.66-11.74c-.87-1.84-1.79-3.66-2.63-5.52,8.33-19.07,19.32-60.46,39-101.4l61.67-.22L565.8,868c-.06.21-.11.43-.17.64-8.13,29-26.57,55.58-51.84,82.76m-39.21,57.62-7.26,6.6-.1-.13Q470.81,1012.34,474.58,1009.05Zm-10.2,9.27-7.91,7.21-1,.48q4.22-3.83,8.74-7.86ZM395.27,767c.52,1.1,1,2.19,1.58,3.28,4.72,8.72,7.52,18.25,11.08,27.46,1.77,4.62,2.62,9.52,4,14.27l1.86,7.18.93,3.59.58,3.66c1.35,9.78,3.52,19.49,3.58,29.41l.43,8.39-26.53-.09-.3-93.9Zm-2.13-14.18,5.17-8.53c1.3-2.1,2.5-4.27,3.89-6.3l4.43-5.94,8.88-11.88,10-11,5-5.5,5.47-5,11-10c3.89-3.05,7.89-6,11.83-8.94q7.84-5.91,16.19-11l1.33,1.15S458,685.69,437.07,704.8c-16.72,15.28-36.44,39.35-43.71,48.42Zm-.36,115.9,26.36-.09q-.44,8.55-.23,17.12c-.06,9.83-2.2,19.45-3.49,29.16a47.07,47.07,0,0,1-1.51,7.25l-1.84,7.19-1.83,7.19a50.36,50.36,0,0,1-2.12,7.1c-3.51,9.24-6.34,18.77-11,27.54-1.6,3.26-3.08,6.6-4.69,9.86Zm1.06,117.58c2.46-4.38,4.48-9,6.74-13.48,4.81-8.87,7.7-18.56,11.31-27.95a51.91,51.91,0,0,0,2.18-7.22l1.89-7.31,1.89-7.31a48.55,48.55,0,0,0,1.56-7.37c.33-2.44.72-4.87,1.11-7.3a234.65,234.65,0,0,0,11.26,48.71c-8.93,25.66-30.36,31.36-38.35,32.6l-.83-1.39ZM423.35,880.5l.51-9.81-.1-2,40.12-.14a554.21,554.21,0,0,0-30,81.49A230.15,230.15,0,0,1,423.35,880.5Zm42.45-16.07L424,864.28q.12-1.6.27-3.2a217.7,217.7,0,0,1,10.93-50.81c33.74-55.08,63.95-71.41,63.95-71.41s5.44,3.38,8.69,12.08q-21.76,20.68-43.22,41.7,22.28-19.17,44.16-38.77c2.92,11.07,3.1,35.24-20.11,69.63A319.57,319.57,0,0,0,465.8,864.42ZM500,713.26a240.71,240.71,0,0,1,30.86-22.69q2.51-1.57,5.07-3.06l8.6,11.73c.56.87,1.11,1.75,1.66,2.62-16,14.25-32,28.64-32,28.64Zm29-25.72c-30.3,18.12-56.61,43.33-75.16,73.51a233.22,233.22,0,0,0-31.73,81.6c-.75-5.68-1.78-11.33-2.55-17l-.58-3.73-.93-3.66-1.87-7.32c-1.36-4.84-2.23-9.84-4-14.55-3.59-9.4-6.43-19.13-11.2-28-.83-1.68-1.64-3.38-2.45-5.08,17.55-19.92,60.1-66.36,95.69-90.32a168.67,168.67,0,0,1,18.85-11,119.87,119.87,0,0,1,11,11.44l5.53,6.13c.91,1,1.88,2,2.73,3.09l1.55,2.12Q531.46,686.11,529,687.55Zm-137.63-86A247.64,247.64,0,0,1,444,616.34c20.32,8.63,39.1,20.42,56.37,34.06l.34.31q-8.69,3.77-17.06,8.24c-5-4.1-18-14.23-42.4-30.52-25.32-16.86-42.35-23.36-49.86-25.29Q391.42,602.36,391.42,601.58Zm.15,14.12c8.27,3.58,30.65,14.3,44,22.71,12.58,8,28.39,21,36.07,27.51q-7.9,4.89-15.37,10.46c-4,3-8.11,6-12.07,9.07L433,695.57l-5.58,5.08-5.09,5.58-10.18,11.16L403,729.45l-4.53,6c-1.43,2.07-2.66,4.28-4,6.41l-2.11,3.46-.15-45.27Q392,657.9,391.57,615.7Zm.42,451.37.14-17.6q4.19.59,8.41,1,4,.32,8.1.51C400.19,1059.07,394.65,1064.49,392,1067.07Zm19.46-18.75q-5.32-.24-10.63-.71l-.43-.05q7.81-1.48,15.52-3.47Zm9.5-9a243.32,243.32,0,0,1-28.8,6.62l.1-13.11.09-28.54a50.84,50.84,0,0,0,5.16-1.06c.49.79,1,1.57,1.54,2.33l4.54,6,9.12,12,10.19,11.1,1.4,1.52Zm13,6.79.31-.3h0Zm-7.41-12-1.38-1.54-9.94-11.05-8.87-11.92-4.42-6c-.32-.45-.62-.91-.92-1.38,12.13-3.83,27.43-12.2,36.09-25a30.12,30.12,0,0,0,1.56-2.61c.4.81.8,1.62,1.18,2.43L445.63,989a43.05,43.05,0,0,0,3.23,5.79l3.48,5.65c1.3,2,2.54,4.14,3.82,6.2Q439.12,1022.23,426.5,1034.09Zm9.88,9.76-.05,0q5-4.74,10.56-9.89l.74-.31Zm47.19-3.15q-8.3,2.3-16.77,4a252.23,252.23,0,0,1-26,3.24l-1.14-1,20.65-19.18q4.07-2.05,8.06-4.27A228.28,228.28,0,0,0,483.57,1040.71Zm61-92.33-9.76,13.32L532.35,965c-.85,1.08-1.82,2.06-2.73,3.09l-5.53,6.13c-7,8.53-15.61,15.48-23.68,23a272.55,272.55,0,0,1-28.79,20q9.83-9.17,19.61-18.39l30.63-29.08c7.88-7.66,15.82-15.25,23.68-22.93Zm2.11-3.34c-8.81,7.63-17.53,15.36-26.31,23l-18.13,16.19c26.51-25.07,49.05-50.94,64.22-78A249.14,249.14,0,0,1,546.65,945Zm20-80.14-25-.21-59.74-.21a292.28,292.28,0,0,1,22-37.64c14.74-21.12,29.17-60.25,17.65-83.66,3.45-3.07,10-8.06,10-8.06S583.76,795.13,566.61,864.9Zm6-106.16a248.23,248.23,0,0,1,6.66,30.38c-12.76-37.35-37-62.2-38.61-63.84q6.33-5.73,12.64-11.48A232.89,232.89,0,0,1,572.58,758.75Zm-9.25-72c-4.25,3.71-9.05,7.94-13.95,12.28-.45-.71-.9-1.42-1.36-2.13l-8.46-11.47A219,219,0,0,1,586.5,666C579.43,672.42,571.26,679.83,563.33,686.76ZM591,661.89a228.33,228.33,0,0,0-53.43,20.8l-2-2.7c-.87-1.09-1.86-2.09-2.79-3.14l-5.65-6.23A117.85,117.85,0,0,0,517,660.05a151.3,151.3,0,0,1,46.15-13.26c6.84,5.34,13.43,11,19.77,17-6.13-5.95-12.51-11.65-19.15-17a133.43,133.43,0,0,1,42.55,1.66C605.18,648.93,599.18,654.4,591,661.89Zm-26.1-25.36,2.84-.42a226.94,226.94,0,0,1,63.88.07l-4.85,4.42C618.77,637.45,598.52,631.69,564.87,636.54Zm64.21,19.28q-7.18.5-14.31,1.48,10.94-10.16,21.86-20.34a241.67,241.67,0,0,1,48,13,227.64,227.64,0,0,1,40.6,20.22A226.12,226.12,0,0,0,629.08,655.82Z"/></g></g></g></svg>