<?xml version="1.0" encoding="utf-8"?>
<!-- Generator: Adobe Illustrator 21.0.0, SVG Export Plug-In . SVG Version: 6.00 Build 0)  -->
<svg version="1.1" id="Capa_1" xmlns="http://www.w3.org/2000/svg" xmlns:xlink="http://www.w3.org/1999/xlink" x="0px" y="0px"
	 viewBox="0 0 50.5 50.5" style="enable-background:new 0 0 50.5 50.5;" xml:space="preserve">
<style type="text/css">
	.st0{fill:#FFFFFF;}
</style>
<g>
	<g>
		<path class="st0" d="M20.1,14.1c0,0,1.8,5.3,5.4,5.3c3.6,0,4.9-5.3,4.9-5.3s1.1-0.6,1.1-1.5c0-0.9-0.8-1.6-0.8-1.6
			s0.8-6.5-5.4-6.5c-6.1,0-5.3,6.6-5.3,6.6s-1,0.3-1,1.4C19,13.7,20.1,14.1,20.1,14.1z M40.9,30.5H9.6c-0.8,0-1.4,0.6-1.4,1.4v4.4
			c0,0.8,0.6,1.4,1.4,1.4h3.4l1.4,8.2H35l1.7-8.2h4.2c0.8,0,1.4-0.6,1.4-1.4v-4.4C42.3,31.1,41.6,30.5,40.9,30.5z M35.5,26.5
			c0-1.6-0.6-2.3-1.7-3.2c-1.1-0.9-4.1-2.5-4.1-2.5L27,28.2c0,0-0.3-1.6-0.7-2.8c-0.4-1.2-0.7-1.9-0.7-1.9l1.1-1.1
			c0,0-0.1-0.4-0.6-1c-0.2-0.3-0.9-0.6-0.9-0.6h0c0,0-0.7,0.3-0.9,0.6c-0.4,0.6-0.6,1-0.6,1l1.1,1.1c0,0-0.3,0.8-0.7,1.9
			c-0.4,1.2-0.7,2.8-0.7,2.8l-2.8-7.4c0,0-3,1.6-4.1,2.5c-1.1,0.9-1.7,1.6-1.7,3.2c0,1.6,0,2.8,0,2.8h20.6
			C35.5,29.3,35.5,28.1,35.5,26.5z"/>
	</g>
</g>
</svg>
